<mxfile host="drawio-plugin" modified="2022-02-08T16:02:14.584Z" agent="5.0 (Macintosh; Intel Mac OS X 11_6_0) AppleWebKit/537.36 (KHTML, like Gecko) Chrome/89.0.4389.114 Safari/537.36" etag="LKl-Q_3UipKzE00I0eFK" version="15.5.4" type="embed"><diagram id="aG85C2SP72KjwLObzrI8" name="Page-1"><mxGraphModel dx="2318" dy="1518" grid="1" gridSize="10" guides="1" tooltips="1" connect="1" arrows="1" fold="1" page="1" pageScale="1" pageWidth="1169" pageHeight="827" math="0" shadow="0"><root><mxCell id="0"/><mxCell id="1" parent="0"/><mxCell id="NumrLUZ_5ZjBdyxwcPVm-82" value="" style="shape=ext;double=1;rounded=0;whiteSpace=wrap;html=1;strokeWidth=1;fillColor=#FFFFFF;strokeColor=none;" parent="1" vertex="1"><mxGeometry x="-195" y="-25" width="1200" height="720" as="geometry"/></mxCell><mxCell id="2yzsOEMiPKhiCfh9Lknw-2" value="" style="edgeStyle=orthogonalEdgeStyle;rounded=0;orthogonalLoop=1;jettySize=auto;html=1;endArrow=none;endFill=0;exitX=0;exitY=0.5;exitDx=0;exitDy=0;startArrow=open;startFill=0;" parent="1" source="NumrLUZ_5ZjBdyxwcPVm-86" target="xBDIy38juaYT07p71_3k-25" edge="1"><mxGeometry relative="1" as="geometry"><mxPoint x="290" y="152" as="sourcePoint"/></mxGeometry></mxCell><mxCell id="2yzsOEMiPKhiCfh9Lknw-11" style="edgeStyle=orthogonalEdgeStyle;rounded=0;orthogonalLoop=1;jettySize=auto;html=1;entryX=0.25;entryY=1;entryDx=0;entryDy=0;dashed=1;endArrow=open;endFill=0;curved=1;exitX=1;exitY=0.75;exitDx=0;exitDy=0;strokeColor=#999999;" parent="1" source="NumrLUZ_5ZjBdyxwcPVm-86" target="2yzsOEMiPKhiCfh9Lknw-1" edge="1"><mxGeometry relative="1" as="geometry"/></mxCell><mxCell id="2yzsOEMiPKhiCfh9Lknw-12" value="&lt;font style=&quot;font-size: 14px&quot;&gt;&lt;i&gt;Cluster&lt;br&gt;checks&lt;/i&gt;&lt;/font&gt;" style="edgeLabel;html=1;align=center;verticalAlign=middle;resizable=0;points=[];" parent="2yzsOEMiPKhiCfh9Lknw-11" vertex="1" connectable="0"><mxGeometry x="-0.6228" y="-2" relative="1" as="geometry"><mxPoint x="62" y="10" as="offset"/></mxGeometry></mxCell><mxCell id="NumrLUZ_5ZjBdyxwcPVm-86" value="&lt;font style=&quot;font-size: 16px ; font-style: normal&quot;&gt;StackState &lt;br&gt;Cluster Agent&lt;/font&gt;" style="rounded=0;whiteSpace=wrap;html=1;strokeWidth=1;strokeColor=#008AFF;fontStyle=2;fillColor=#CCE8FF;fillOpacity=40;" parent="1" vertex="1"><mxGeometry x="279.99612903225807" y="133.04610310841548" width="145.16129032258064" height="63.04776345716452" as="geometry"/></mxCell><mxCell id="NumrLUZ_5ZjBdyxwcPVm-93" value="&lt;span style=&quot;font-style: normal&quot;&gt;&lt;font style=&quot;font-size: 20px&quot;&gt;&lt;b&gt;&amp;nbsp;StackState&lt;/b&gt;&lt;/font&gt;&lt;br&gt;&lt;/span&gt;" style="rounded=0;whiteSpace=wrap;html=1;strokeWidth=1;strokeColor=#008AFF;fontStyle=2;fillColor=#CCE8FF;fillOpacity=40;verticalAlign=top;align=left;" parent="1" vertex="1"><mxGeometry x="-40" y="380" width="970" height="290" as="geometry"/></mxCell><mxCell id="NumrLUZ_5ZjBdyxwcPVm-95" value="&lt;b style=&quot;color: rgb(0 , 0 , 0) ; font-family: &amp;#34;helvetica&amp;#34; ; font-style: normal ; letter-spacing: normal ; text-indent: 0px ; text-transform: none ; word-spacing: 0px ; background-color: rgb(248 , 249 , 250)&quot;&gt;&lt;font style=&quot;font-size: 16px&quot;&gt;Topology&lt;/font&gt;&lt;/b&gt;" style="text;whiteSpace=wrap;html=1;fillColor=#ffffff;fillOpacity=60;rounded=0;align=center;" parent="1" vertex="1"><mxGeometry x="449.5767741935483" y="495.0947687642153" width="220" height="140" as="geometry"/></mxCell><mxCell id="NumrLUZ_5ZjBdyxwcPVm-96" value="&lt;div&gt;&lt;/div&gt;&lt;div style=&quot;font-size: 10px&quot;&gt;&lt;/div&gt;&lt;font face=&quot;helvetica&quot; size=&quot;1&quot;&gt;&lt;b style=&quot;font-size: 16px&quot;&gt;Metrics&lt;/b&gt;&lt;br&gt;&lt;/font&gt;" style="text;whiteSpace=wrap;html=1;fillColor=#ffffff;fillOpacity=60;align=center;verticalAlign=top;" parent="1" vertex="1"><mxGeometry x="219.9999859747545" y="495.0947687642153" width="220" height="140" as="geometry"/></mxCell><mxCell id="NumrLUZ_5ZjBdyxwcPVm-97" value="&lt;div style=&quot;font-size: 10px&quot;&gt;&lt;/div&gt;&lt;b style=&quot;font-family: &amp;#34;helvetica&amp;#34; ; font-size: 16px&quot;&gt;Events&lt;/b&gt;&lt;font face=&quot;helvetica&quot; size=&quot;1&quot;&gt;&lt;br&gt;&lt;/font&gt;" style="text;whiteSpace=wrap;html=1;fillColor=#ffffff;fillOpacity=60;align=center;verticalAlign=top;" parent="1" vertex="1"><mxGeometry x="-10.004427302477822" y="495.0947687642153" width="220" height="140" as="geometry"/></mxCell><mxCell id="NumrLUZ_5ZjBdyxwcPVm-106" value="&lt;font face=&quot;helvetica&quot; size=&quot;1&quot;&gt;&lt;font color=&quot;#c1c8d0&quot; style=&quot;font-size: 16px&quot;&gt;No trace data retrieved&amp;nbsp;&lt;/font&gt;&lt;br&gt;&lt;/font&gt;" style="text;whiteSpace=wrap;html=1;fillColor=#ffffff;fillOpacity=60;align=center;verticalAlign=middle;" parent="1" vertex="1"><mxGeometry x="680" y="495.09" width="220" height="140" as="geometry"/></mxCell><mxCell id="azgEpP8wAGJS18bVVK_o-9" value="" style="rounded=1;whiteSpace=wrap;html=1;align=center;fillColor=none;arcSize=9;strokeColor=#FFB61E;" parent="1" vertex="1"><mxGeometry x="-160" y="-10" width="1080" height="226.64" as="geometry"/></mxCell><mxCell id="azgEpP8wAGJS18bVVK_o-17" value="&lt;div style=&quot;text-align: left ; font-size: 16px&quot;&gt;&lt;font style=&quot;font-size: 16px&quot;&gt;- Components&lt;/font&gt;&lt;/div&gt;&lt;div style=&quot;text-align: left ; font-size: 16px&quot;&gt;&lt;font style=&quot;font-size: 16px&quot;&gt;- Relations&lt;/font&gt;&lt;/div&gt;" style="text;html=1;align=center;verticalAlign=middle;resizable=0;points=[];autosize=1;" parent="1" vertex="1"><mxGeometry x="467" y="540" width="120" height="30" as="geometry"/></mxCell><mxCell id="t_z0C_LVNnkTvGJ8oj7n-2" value="&lt;div style=&quot;text-align: left&quot;&gt;&lt;br&gt;&lt;/div&gt;" style="text;html=1;align=center;verticalAlign=middle;resizable=0;points=[];autosize=1;" parent="1" vertex="1"><mxGeometry x="225.97000000000003" y="532.38" width="20" height="20" as="geometry"/></mxCell><mxCell id="jCoO6dXICAr47p2ZTsIo-12" value="" style="shape=image;imageAspect=0;aspect=fixed;verticalLabelPosition=bottom;verticalAlign=top;image=data:image/png,iVBORw0KGgoAAAANSUhEUgAABLAAAAIACAYAAACSO5WAAAAACXBIWXMAABYlAAAWJQFJUiTwAAAAAXNSR0IArs4c6QAAAARnQU1BAACxjwv8YQUAAF76SURBVHgB7f1drBxnuS/6Pj3sODixiYmZcPzBpiORROdIM4x8nJ2prSXRuThHAuHJR/ZNMpEYSJtkHwhgltFh33n4brFFJoYZplbMlnAkSK5gZi5HcOnmjqwdr5hws+NESiP8sZgTJ06c2Ik9PGr32z06Hnb80R9V3dXVv59U6WFneIzu6qrqqn897/NGAAAAAAAAAAAAAAAAAAAAAAAAAAAAAAAAAAAAAAAAAAAAAAAAAAAAAAAAAAAAAAAAAAAAAAAAAAAAAAAAAAAAAAAAAAAAAAAAAAAAAAAAAAAAAAAAAAAAAAAAAAAAAAAAAAAAAAAAAAAAAAAAAAAAAAAAAAAAAAAAAAAAAAAAAAAAAAAAAAAAAAAAAAAAAAAAAAAAAAAAAAAAAAAAAAAAAAAAAAAAAAAAAAAAAAAAAAAAAAAAAAAAAAAAAAAAAAAAAAAAAAAAAAAAAAAAAAAAAAAAAAAAAAAAAAAAAAAAAAAAAAAAAAAAAAAAAAAAAAAAAAAAAAAAAAAAAAAAAAAAAAAAAAAAAAAAAAAAAAAAAAAAAAAAAAAAAAAAAAAAAAAAAAAAAAAAAAAAAAAAAAAAAAAAAAAAAAAAAAAAAAAAAAAAAAAAAAAAAAAAAAAAAAAAAAAAAAAAAAAAAAAAAAAAAAAAAAAAAAAAAAAAAAAAAAAAAAAAAAAAAAAAAAAAAAAAAAAAAAAAAAAAAAAAAAAAAAAAAAAAAAAAAAAAAAAAAAAAAAAAAAAAAAAAAAAAAAAAAAAAAAAAAAAAAAAAAAAAAAAAAAAAAAAAAAAAAAAAAAAAAAAAAAAAAAAAAAAAAAAAAAAAAHmpBXBN/+9vHJ2/MDf3magt12vLtU1Rq9W7/yc7ldWyVmRzrbm48IcXnvhEMwAAAIDcCbDgCu577M+N5VrtC5HVFtp/3NTnPzvV3qGakWXPHvrp9qcCAAAAyIUAC1ZJwVUWa3ZnkTViFFm0apEtCrIAAABgdAIsaLvnW0cXIuZ2R5bVI0/tIKu9lz21vHRu/+H/fFsrAAAAgIEJsJhZ8ztf2zS3tG5n+8vvRP/DBIeTgqyI5vKFc3sEWQAAADAYARYzZ6zB1ZVksV+QBQAAAP0TYDEzJh5cXU6QBQAAAH0RYFF5pQuuLifIAgAAgGsSYFFZ8ztP1OcuXPhOZLWFKGNwdZla1Jq1uLDnhSc+0QwAAADgfQIsKue+x/7cWK7NfTWyWIgplIKsiKUfH3rif3g2AAAAAAEW1ZGCqyzW7M4ia0QVZNGqRbZ46KfbnwoAAACYYQIspl7lgqvLCbIAAACYcQIsplblg6vLCbIAAACYUQIsps7MBVeXWwmyLlw4/zszFwIAADALBFhMjXu+dXQhYm53ZFk96ARZ7T34qeWlc/sFWQAAAFSZAItSm9/52qa5pXU7219+p71sCq4si/3LF87tEWQBAABQRQIsSklwNSRBFgAAABUkwKJUBFc5EWQBAABQIQIsSkFwVZB2kDVXW37qhSc+0QwAAACYUgIsJmp+54n63IXl3e2g5YshuCpMLWrNWlzYI8gCAABgGgmwmIj7HvtzY7k299V2cLUQjE8WrVpki4d+uv2pAAAAgCkhwGKsUnCVxZrdWWSNYHIEWQAAAEwRARZjIbgqKUEWAAAAU0CARaEEV1NiJci6cOH878xcCAAAQNkIsCjEPd86ulDL5r4quJoy7SCrfVR4annp3H5BFgAAAGUhwCI38ztf2zR34YYvRsztjiyrB9Mti/3LF87tEWQBAAAwaQIsRtYJrpbW7Wx/+Z32simoFkEWAAAAEybAYmiCqxkjyAIAAGBCBFgMTHA149pB1pos+/H/+c/bDwcAAACMgQCLvgmuWK0WtWYtLux54YlPNAMAAAAKJMDiuuZ3nqjPXVjeHVksBHzQ4VqW7T300+1PBQAAABRAgMVV3ffYnxtZrNmdRdYIuJ4sWrXIFgVZAAAA5E2AxQcIrhiJIAsAAICcCbB4n+CKXAmyAAAAyIkAC8EVxWoHWe0jzVPLS+f2H/7Pt7UCAAAABiTAmmH3fOvoQi2b+6rgirFIQVZEc/nCuT2CLAAAAAYhwJox8ztf2zS3dONX2+/8zsiyesAkZLFfkAUAAEC/BFgzohtcrdvZ/vI77WVTQBkIsgAAAOiDAKviBFdMBUEWAAAA1yDAqijBFdOoFrVmLS7seeGJTzQDAAAAVgiwKmZ+54n63NLyQgiucrd185p4qHFz3PepGzt/fvnY+Wi+9G5nIV8pyIpsef+hn25/KgAAAJh5AqyK6ARXF5Z3RxYLQe4e/dzGeOSzG6/4/46/fiEe+clf48TJC0HOsmjVIlsUZAEAAMw2AdaUu++xPzeyWLM7i6wRFOJ7D97Sqby6FiFWwQRZAAAAM02ANaUEV+Ox4/6bYvEr/Y3EPPTKe+0Q62RQIEEWAADATBJgTRnB1Xg98/2PxR3b1/b9/akK69Ar54KCtYOs9n9+vHzh/LNmLgQAAKg+AdaUEFyNX2rafmDx4wP9m6cPvh2P//qtYExSkDVXe3b5/Hs/FmQBAABU11xQavd86+jCPd86/tpyzB0UXo3Xllv7r7zquWP7DcEY1aIeWbZzbu261+755rGfz/+vr9UDAACAyhn8Cp3Cze98bdPc0rqdUat9tX1xXk9lJsB11GKhHWQttIOs/csXzu1RkQUAAFAdAqwSeT+4WorvtP+4qR1eBTAgQRYAAEDlCLBK4APBFTC6VUHWXG35qRee+EQzAAAAmEoCrAkSXJXbiZNLMai3zy4HJdMOspZjbuHex443a3FhjyALAABg+giwJmB+54n63IUL34ml2kIIrkrr9NnBh3C+fHTw0IvxSJMgZDHXuOebx1q1yBYP/XT7UwEAAMBUEGCN0X2P/bmxXJv7aiwtL6SyEMrt9NnlToi1cX3/79VpFVjlV4t6FrX97SBrUZAFAAAwHeaCwqXg6t7Hjh9cjrmDkcVCMDVOnLww0PcfOXo+mBIpyKp1gqzX7v3m0a8GAAAApSXAKtDq4CoNXwqmzguvvDfQ9x85JsCaOoIsAACA0hNgFSD1uBJcVcMggdTxk0tD9c2iJARZAAAApSXAytk93zy+c25p+UXBVTUMEkgdf32w4YaU1MUg6+dpptAAAABg4gRYObr7sWP7o5b9KMwsWBlHjp4b4HsNH6yUWizMnV/34vz/+lo9AAAAmCgBVg5SlUYaMliLMOyoYgapqjJ8sIJqUZ9bs+6gEAsAAGCyBFg5qC3d+HNDBqur35kIDSGsKCEWAADAxAmwRnTPY8cWa5F9MZh5J04uBRXVDrFqa9f9i55YAAAAkyHAGsE93zq60H7YHVSayiqSWsT83IUb7e8AAAATIMAa0vzOE/X26nMxy/sEXTMgy3bOP/bnRgAAADBWAqwhzS0tL7QvZusBzJRarBFcAwAAjJkAawjd6itDB2EW1SJrqMICAAAYLwHWEOYuXGgEMLNUYQEAAIyXAGsoel/BLOtUYZmREAAAYGwEWAOa/8bReb2vZsvG9XYTPmjN+Ru+EAAAAIyFK/MBzc3NfSaYGVs3r4k7tq/t63t33H9TMDuyiEYAAAAwFgKsAWWRNYKZse/bH+37ex9+4ObY0g68mBW1RgAAADAWAqwB1Wq1+WAmfO/BW2LLrf0HUmmoYQq8Nq6vBTOgFnV9sAAAAMZDgDWA+Z0n6vpfzY7PDzEkcGs78Lr39nXBjFheZ0gxAADAGAiwBrBm6bzqqxkybCXVhvWGEc6KucyQYgAAgHHorzs1HVlt7Wciy4Jq2rJ5bdy5bW1nKOAgQwcvd9/t6+Lts8tx+mwWx1+/ECdOLgXVlGVzQm0AAIAx0KxnAPc8duzF9oML1il3x/Yb2kHVDZ3ZBbfeurbzddHN148cPd8Js15uPx45dj5ebi8nTl4Ipt6p5bXnbju897ZTAQAAQGEEWH1KzZrnlta9EUyVjTfV4o5t66Jx143toGpdJ7wqS5P1VKF16JX34oVXznVCrfQ102c5lh84/MQnmgEAAEBhDCHs09qltfPLwTS49/YbO8P47v3UjaVuqJ6CtMZdH+osSS/QOvjSu3Ho1fdUaE2JuVjz6fZDMwAAACiMAKtPyzFntrESS6FVqrLacf/NpamwGtTlgVYadvhfnj8bzT+eFWaVWBadRu4/DgAAAApjCGGf7n3s+MGVC1VKIjVd//v718dDjQ1TG1r1K4VZv2y+ozKrnE79tye2fSQAAAAojACrT/c8diz1v9oUTFzjrvXxcOPmUg8PLNKB58+0l7N6ZpVIltXqL/50658CAACAQgiw+jD/jaPzc3O1F4OJSc3YH25smIlqq36lWQ2f/M3peK4daDFZtSxbOPTT7U8FAAAAhdADqw9za2I+smACBFdXt/XWNbHnK5vi0c9t7ARZ0z68ML3XG9av6bzPJ15fitNnpmenaz/TRvtBgAUAAFAQAVYfsqz2hWmJTnrNzO/c1h1e9/Kxc3HolXPRfOndmCaCq/71gqxUkZWqsZ4++HZnRsNpccf2G+J7X76l87j6vU7b7e5fvjEloVytEQAAABRGMtCHe751/LV2ilWPEtu6eU0s/sNHrtoXKoUbu352Mo4cXYoyE1yNbpqGFj78wIbY9eUPX/N79v32dOf1lN3y2nMfObz3tlMBAABA7tYE1zS/80S9tpwtRoml8Grftz/aqWC5mo3r5+J//g83R63WrWwpoxRmPP71zfE//T9vjBtvEF4NK73XD9z1odjxdzd1KrGOHDsfZfS9B2+JRz678brfl6oK3z67HH9slfN19GSx5vf//fl/fDkAAADI3VxwTWuWzs9HyaUQYMut/WWR6XtTz6QySQFFCuBSJY6qq/z0hhYutpctm8uVVafn9VDj5r6//5H2Nlv2bWMuyxoBAABAIQRY15HV1n4mSixV2+y4/6aB/k1ZQqw0XDBV4ez79uarDn1kdGn7eG7x46UJLlN49fkBt9m0nQ/6b8Yty+ZKH3YDAABMKwHWddSyKPVF6bWGDV7LpEOsVHX1zPc/NlAVDqNJ7/mBPR+faDVWCiyHDaKG3dbHpRaZAAsAAKAgAqzryKLcw4K23jp8GDGJEGt11dWWW7VgG7e0vUyqGiv9zooHlpvmH/tzIwAAAMidAOsa7puCi9HUpHsUKcT6/P3rYxx6zeZVXU3euKuxUoP+fhq2X8vbZ5aj7OZizacDAACA3AmwrmF5Ci5GD73yXoxqz1c+UngPqjQj3tPf/1jcsa3cw8BmSarGSoFi0b2l0nufGvSP6uWSzqa4WtkrNgEAAKbV2uCq0sVo2efEO312uRNipZ5So3j867fGIz/5axw5uhR5S0MGy1h1dfrMcicUOXL0fBx//UKcOHmh8+f0nqfqpFH88FdvxnPPn+kEdql3UwqL0uN9I75PeevNVLht85p48jenI2/pNe/68i0xquMnl9rr82yUXXvbaQQAAAC5K3s+M1H3PHbsjfbDpii5FBI88/2/iVGlMCzPECv1u3r8fynPDIMpsDr06rl4oR34HXrlXBy5SkVPCnVGDbBSGLTvt1cOhO791LrOe9a460OlCrRSELr7l6c6QV4e0mtMFV4b149+mNn1s5PRfGn0asNxyLJa/cWfbv1TAAAAkBsB1lXMf+Po/Nxc7cWYEg83bo5dD45e6ZLs/sUbI1e79PpdTbpRewqtDjx/ph1+vNsJr/qRqtlSk/lRPH3w7Xj812/19b0p0Npx/03tMGtdbNk82aLIVImWQsxRQ6y8wqv0/v3w129ORfVVTy3LFg79dPtTAQAAQG4MIbyKuTUxH6P1Rx+rp5vvdIa/7fmHTSOHIKkn1rb2zxh2SFmelTfDGCa0ytuGm/pvL5eeY+959sKsVJ218abxt6jr9cVKFU/DVuKlnleL/zB64WIaNvjIT07GidfzqQgbl2yufeyIEGABAADkSIB1VbXPxJRJw+LSBf8Pv35r3Ll9tGbpvRnjBg2xug27b5lIeJWGBqbQKvWeGmV2xo3rJze3QS/M2vjrWifEerT9Poy7KiuFWM98/2NDVeKl2QbzaNh+4Pdn4vFfvznyLJuTkGW1RgAAAJArQwiv4p7HjqXhg/MxpXbcvz6X8KP50tn44a/f6mtIWV6VN4NKwdW+dtCWV7VVqoBa/MporyM9p0fbYWIeUlVWCoZSoDVuj//qzU51Xz/yaNafqq4Wf3FqYpVzeVlee+4jh/fedioAAADIhQqsK5jf+dqmWJre8Co58PzZbkVWO8RKwdKwGnetjzu2r+uGCq9cvYn2JMKrVKWThgrmHXZsmGAF1pV0q7Je71RGjfp+Dir1VUtDGa9ViZd6hqWwdJRm/WnY59PNt2Pfb9+OSlham44fzaBI6YAjJGRSbH8AAGOmAusK7nvsz43lmDsYFZFX8JEafKdKrDQ8MM1Y2JuxbtzhVd4VV5dL6+rRz22MURxP62XxL1GE9H6mYGmcFVlpRsUUYqWZJR/97Ifj8/ffFG+3Q6ctm0dr0t8Lrp5pvjOVwwWvqpbt/W//tP27wajSgaUe3WrYT6/8ubHyd4vtZU9AserR3f4+uerrtPS2xd8FAABjoQLrCpZra74QWXUuplPwtNgOm9JQsH/8+keGHlaYgpOtq2YVTM2+0xDDhxsbYhyqMrxsVOn93PWz13MbJtqPFOptaAeXD9y1/v2ZJTeuHy28SkFkej+nrUl7P7JsbqorOCfg8qCq93U9YDzqcTGo6oVU6e/GPy4eAIArEmBdQS2L+QrVgrzvyLHz8fnFf2uHERvi0c+N3mg7hVnjCK/GPbxs64hVRXn9jOtJw0TTktf7eT15vdfp/Xzyt2/FM80zUVW1yARYV5bCgNUhVT0EVYxXPbqVU6srqtKjoAoAoOQEWFeQVfziMwVBaXa5fd/ePPYZ7gZV5SqdvPTez9R4PvWjKrMZej83zX/j6Pzhf95+OEjq7SVNjCEkYFK+0172BgAAU6tc3apLIPW/ihm4yErD0FI11pO/eSvKKFXp/PBXpzoz+Y077Nh6az6hXuoVNi7p/Xykva7SrIFlNan3c1Lm5uY+E6wmvGKSbH8AAFNOgHWZ5Vjz6ZghqXrnoR/8e5w4uRRlkXpdpec07UPMJjGbYepztmP3X8r3fv6n6X8/B5YtG0YIAACQEwHWZbLIGjFjjhw936neSY+TduD378TDKVCbYJXOxvXTvVukaqyHfvDXePrgOzFpR46e625bxya/bY1frREAAADkQoB1mVqtNpNVE93Q49/j0CvvxaSkIWaLv3wzTp+dbAv9vIb+rZ6xcdxOn12Ox3/95kSHiKbKq0dmaMjgB9Sifvc3j38yAAAAGJkAa5X5nSfqkWX1mGFP/vZ0jFvqd/XIj/9amiFmG27KZ7fYeNP4emBdzSSHiO762esTDyMnbS6WGwEAAMDIBFirrFk6P/M9aw69cq4ddoyvYqbX7+rQq+eiLPKqwNqwfnIVWKv1hoiOM8RK7+uRY+XpwzUp2VzogwUAAJADAdYqWW2tWcPaXnh1PMMIZ36I2Rj1ZikcV4h13HvakWX6YAEAAORBgLVaNnsN3K8kzWRXdNCRejSVMbzKs2/VJHtgXcn7IVbB6zwNCX38V5PrvVUmtYj5+Z2vbQoAAABGIsBasXKRabhPjGfIWZrpb993PhpbNpcr5Kmy1JPr4Qc2xJYCg7VeVd1szjp4FUtrHVcAAABGJMBasdZF5iU6Q8BqxTYhTxVKz3z/b+Lhxs1RFls2r428lCmcu2P7De11/bF4qOB1naq7hFeXmos5Q5MBAKZXvb0stJfd7eXn7eXF9vKjAMYuv6v1KbfsIvMSj35uY6GVOj2pEmvXg7d0ApY0A+I4G8jPilR1tevLH45xuPf2GzuBZBqGSlcWnT5YewIAgLJKo3Hq0R2R8+lVX9ev8v2HAxg7AdaKWvsiM2tfahKxdfOaeOSzG2Ocdtx/Uyf8ePxXp6L50niayF9JCtTy8uH1xVawXU96Hxf/4SPt9bouxumRdvh58I/vCiNX1CJT3QkAUA6DBlVAiRhCuCJzkfm+cYdXPWlI4eNf39yp/pqUjTmGThvWT273atz1oXj6+x8be3iVpBDwe2Oq+JoSm+a/cdTxBQBgcg62l9fayxvRHQKYhgLubC9fDOEVTA0BVtvKxaWZwqJbCZWWSUoB2oE9H59ID6k8Q6eNE6jASo3av/fgLe0g8NaJ/P6exl3rJxKeldXcnCHKAAAT1AhBFUw9AVbb3BqzD/ZMsvpptVSN9dzix8f+fPIMfTauH28AN65G7f1ShbVKtuwYAwAAMAIBVkdNdUR0q6/G0bh9EKka6/Gvf6RUM/qVUWrUnmZ0LNP7d8f2daWaYXKyOo3cAQAAGJIAK8lUYCVlqb66XBqOtu/bH43Pj2Fo49Ycg7KtYwjd0u9I62ZXSaudUkP3jRNuZl8KtajP73zNMGUAAIAhzXyAtXJROfMBVhmrr1ZLQwr3fGVT7HrwwwKRFZNs1N6v1ND9ocaGIGLN+Ru+EAAAAAxl5gOsNUtrGkFpq68u93A7DHn6f/tYYUMKt966NvJURChYlkbt/Xr4gZuFjm3ZnKAcAABgWDMfYGW1tTPf/6rs1VeXm1SD9zK49/YbS9WovR+qsLqyTB8sAACAYc18gFXT/yrXIOjEyaUYl9Tgfd+3N+dajZXCljzlWXmUGrV3Xu+YwsbTZ5YjL6qwUhusmNcHCwAAYDgqsCJrxAzLs/rqeDu8+vpPTsaTv3krxiVVJOXZ4D3vkCWPQGwSjdqPHD0XD/3g3+PQK+9FHtJ6+Mxd62PmLa01jBAAAGAIMx1g3ffYnxsx4x7OcWjXk789HSdevxD7fvv2WEOsXoP3xfYyagC14aacK7BuGu35pKqrcTdqf6EdWj3SDiLTe5ne07z8/f0CrLlY8+kAAABgYDMdYC3P+MVkql66Y3s+TctT9dVzz599/88pxHr8V2/GOKVqslEavN+x/YbcK7A2rB/uuaTgqzPr4pfHO+vigd+/E4+2w6vTZ7POnw+9ci6aL70beUjbW5lnTByH9lr9YgAAADCwmQ6wDB/MryLmSmHV0813YtfPXn8/DBmHURq837nthsjbndsGDwh7jdrzGhbZr1Q1t/jLD76PeQaRD09R8/ki1CIzhBAAAGAIMx1g1Wq1mb2YTD2JduQUkKQhZ80/XrlXUqreeeQnfx1rc/ckNXg/sOfjA1Vj7SggMNrxd4P9zO89eMtYG7X3pPAqVc1dyfHXL8SB35+JPKRwbsabuW+6+5vHPxkAAAAMZGYDrPlvHJ2PLKvHjGrc9aHIy77fXLtP0pGj57s9lcYcYqVqrGe+/zd9VTKlXlNFDG9LQWE/1WC9Ru0PTaBCafcv3rhqeNWzL6deWGl9jLuyrGxqNcMIAQAABjWzAdbcmpjpoTx5VRul3leHXj13/e97/cJEQqwUmPQavF+tGiuFV0XO8Jeqwa4VYk2iUXty+sxyPPLjv17Su+xq8qzCeiDH8HQqZcuGEQIAAAwonw7eU6n2mZhRqdonr7BkkFnqUgjy0A/+Go9//SOdoWTjlAK79DsPvfJepzF5ktZD42/X59bI/lpSiJUqj54++E4cOXa+83d3bLuhE+ZMorF5Ch53/eyN959LPw781zMDD4m8kvQ+pCGSaZbD2VRrBAD92rSy1K/y/0+1l9bKI/S2lys5FbaTftXj6uuytx5bAV3XO063wvbSU49L9636yuPlx6dWOGZd0ewGWNnsVmDd+6l8wqPLZx7sx+mzy51KrF1fviUefmC8w+XSkMKt7RBpx4SGsKXf/70Hi6v06ld63zrVcAMGSCn4SwFgHuFjeg/yGpY4dWpRn9/52qbDe2/zgQTVVW8v6TzjkyuP9bj0xL538tpa+XN6TMeEw+3lDyuPrZg9aZ2k9fWFuLgO633+294FdVqa0V2Pzai+enTXU1p3n4yLF0e9x9Xf13PqsqUVF7fBP8TFbbEMeq8lvcZb4oOvb/XSr9Wvedb3uaTRXtLM7PMrX9ejf731lh5/t/Lo/Kba6nFxm2nEB48119I7tvSW3r5XRfW4dN+qx2D71mq9/aq3v/0hZnhfm8kAK108xtLsBlh5BTgHBgyvVnv812+2w6wL8ejnJh/ozJIjR8/Ff/zZG0NXP6WKu305BFj33b6uHWDF7FpelypA/zUoq0YMf5LRr/19ft8XY7ALs+tpRTEX9el5fjry9eOYnpOz9B6ldZD27Ub0v/3UL3tc3SOvFd336qmodhCT1t1Xo/vae0HMsD9nfmXprce0/TTby7PRPeZO88l+7/X1LoZ6F0TDrK9+Ap9xX2jW49LQd5TXdz1X2laSVnS3l39deazqxWHv9ff2u1HW8ZXWYzO6n3Ep0GpFdTXay8+jWGlbfDYmr7GypG2mHsPbtOpn9bSiOp91jejegEn7Qz3yM7/q56/WC7SacTFArryZDLDWLq2dX47ZlOfwwQPPj9YTqdc4XIg1Hmm2yO/97PV2cJjFsFIVVvr3o84kOOvDCOeyrBECrLKqt5d/iWIumnp2DvC9P4p8T4KaUcwJYjphW4h87Y/yX0A22st3Vh7z3mbq0V2naWlF933bE9W5IGxEceuupxcs9i6u98f0rMPV1Wi9kKDI49KVfn8jrnyhmcLlUS6Uej87Bb6TeG1XU4+L+1ySgoOnohwBQh7SOk6fP9+JYtd3Iy5uN83obi9VWYer1SP/z73LtWJy6653/EyhVSOKU49LP+sWY7rCz95+NWq4N4zLA+RWzEAIP5NN3Jdjbmb7X+U1fDCFIXmEDynEWvzFG0Gxnj74djz6k5MjhVerf1YeGjPczD3L5uaDMqq3l4NR7In9YnRP5pl+zehuL6NWMPSjHt2T+9eie8e/HtOrEd31Nq51t9pClHsd1qMbLqR189rKY7owakS5Ap7dMZhNK/8uBfLpdaUTv3SjoEyv7UrS9pmeZ3rOX43pVY/uNp/We3rvxrm+G1GNdThL0vaxGBePlY0Yn3p0bzQcXHkO9Si3xeiup7Rf1WPy6tE91qZ9rre/V85MBli1GW6iXJbqq0t/1tl46Af/PvYZCmfFk795Kx7/9VuRl+ZL70YeZnk2wlpkjc5QZsokvR/phKkexdkb3eoPGMVCdE+YF2O61ONicNWIyVqI8gRZjbgY7KRlb5Q71EkGrb5KF1JpXafAqh7Tpx7di+oXY7qe/+ogYiEmqx7ddTjtAXzVpdA2befjDjovV195DunzoozBZyMuBldlPlZX8lpjJgOsLLKZrX64L6fZ/36XU4jRc+To+W5jcSFWrlJ41RuqmZc0c2Fq5j6qO7bfMPJQxKm2tFYVVrkUfVLdbC/fDchPOnFOJ9D1KL8UXKSLokaUy0JMLlBLF4pvxMUqq3pMj2bMpvS5nfa5QYaBT0ojLgYRZbIQ3ec1DetwltSjeyz6lyjXsage5Qs+F6P4G555aUYFzVyANf+No2UZZz92KTBIfYdG1XzpbC5D0S53/PULQqycnD6zHLt/8Ubu4VXPC6+ci1FtXD/X2SZn1VysybvhNcNbjEsb0Oat1V6+FJC/enQvBovcfkdRj+6JfqowKuu5Vz0uDlcZp/QZMK3no3+I2fajlaWsUhVfmS+w03bfW4eq0SevEeW8wbDaQkx+m07b6v6YrmF5lTxWz1yANTc3u/2v7tyWT1hwMOfqq9VSiPXQD/7aqchiOCm8SkHgcyPMEnk9zT/msw3k1ZNtGmXRaeTO5KW7wEWejLTaywNhWnGKk06q013zxSiXdMOwDMMF+5WOA2UOJcqiFY5nSfrsKHoGukH1hsJ/J6ZDWofTUslSVYtRfO/PvNSjG7RNYkhhb98q43DGq2lFRWcBnbkAa5YvGvPqf3Uoh+qbazl9drnTE+u5HPtszYrjJ5c66y4N8ytSChhPnBy9if99OW2T06g2PRd1VZaqVoq8YG1FN7xqBRQvBTCLUQ4LMZ0XpmUMJcpm0P5XVbYQ5dle6lH+Kpor6QXd9WDcUqXetDX57lVBjTtISvv5tLX+qOyxeuYCrFqtNrN9Z+7cNnpY8PLRc7nMPtiP3b841enhRH9SeNUZgjmm9yePSrxZHkLYtunubx7/ZDAp9Sj+wiMNG2wFjE+6GJl0b5mF6O5b0zo0aCGEWNfSDFZbiMlX7tVjukOgekxPFVBV7I/pqdS7kv0xvhBrMco7TP9amlFRMxVgze88UY8sq8cM6vYbWhujKrr66nKph5MQ6/qOtIPFh9NMjmMKrzq/M4cqr7Rd5tGXbVrNxXIjmIR6FH+yvBAqFZiMdDHdiMlIJ/lVCH8WYvpmeRwXx7UPSqFxIyajHtWoYKpHdyg0xUuVV9M0FO5q0usoujClHtNXpdajAqsK1iydn9nqq7wqXQ69Ovrsc4NKIdbjv3ozuLIDv3+nU3lVRGP9a2nm1Avt3ttnuQ+WYYQT0OtjUI/iLLaXpwImZxIVUPWoVuVSumipwkVe3ma9gfvVTKrqsGyzxo2iEfrQFW0xprvyarVe/8ci97uDMb1+FxU1UwFWVls7sw3c78ipgfu4K7B6nm6mkOavYw9pyu7pg2/H4i/fnMh6Sb3K8uiDdee20SsDp1etEYxb0VMxL7aXPQGTVY/xVjPUo5pDgNId/nrQk+7oa+B+ZfUYf6XGOCpQxm2S1WxVlypkp7Wa6GrqUdxn3UJM7/G/GRU2UwFWLavcQb5vW3MYppV6LE0yQErh2cP/6d/aoclSEJ2hlY//erLDK1/IoSJv6+bZHUIYtajP73xNz4fxWYxi+xikiwnhFWXRiPH17UgXRfWonnR81g/rolZwLSl8qcd4pN9VlUqay01zD72yqkd1q9saUUy17DTvX5Ue6j0zAVa6SJzlGQjvzGEIYdEz2/Xj+OsXuo3KZzzE+uGvTnWGVk7ay0dHfx/u2Da7MxF2LK+b2crQMVuMYu88PttevhtQLumCpegLwYWVpaoaMZ0NfIvQDK5nHBUu9aheJc1q9ahuODcpRVefT1q6gZjnZ918THd1YzMqbGYCrLVLa2e2+irJowIrj7AiDynE+o//xxszO5wwVV490zwTZXDk2OhDSlMF1sb1tZhVc9nsButjtBDFnuynO11fCyifehR7IViPal9I9+jL06WB+/UtRPGh8TiC6UlbDMN387IQ1R+WmfaHPD/rpr3/YWX7XyUz03xmOdZ8utMyeUZtyWGYVh5hRV6OHD3f6f/06Oc2RpHSsMl9vznd1/emZuQ7/u6mKFLn+ZSg8qrnSE6h5ob1c+1AcnwzKJZJls3NdLg+Bmn9FjkEqNVevhT6wlBeaajRj6OYbXScQwdb8cEhbOmiZRzH0Hp0L2hmfXIGDdz7ky6kixpOvhDjqwhMx4xWfPDYkfa5cQRo6fji5tBo6jHemwyt+OBxelzbS56fdY0o3uGVpXWV/5/WWT0ufs71uw4r36twZgKsWvtgP6vxVR7VV8npM+Vag889f6bQACuFRZ3hiq/3F6wc+K9nO9VERc6qd+D5s1EmqZF7qoQbtYLqzu1r+17PVVOLbD4NcT689zYBSP7qUWwj61Z7eSD0heGDWnHxJLK3bIqLJ6TjOqGPuHhnOu8L6noUP3Sw2V72t5d/jaufkKfX9+kofihjujiatgCrt+21Vv7ce6yvPK6+QLqesl4UrX6Nrcv+Pum9xt4yDo0oLsAqOoxoRXefS8ufrvF96RiWjiuNKG69pqAuDc13fjS8om8ypPdmf3TbKPwhrv5e1aO7raRtpqibDnl+1hX1HNNxdG9c+zPtanqfdem5NVYe61f4vlZU3MwEWFn7IjFm1JbN+bzNZeiBtdrxggOPxV+cGjhUSf9m37c357bOL3e8hCFPmolw4/bRXu+G9TPcyD19IHWHODeDPNWjOytaPYqRTjyEV/T0TuKb0S3d7+fEdBwXgD0pfMn7grrIysZ0kp+ecz/DIE6tfF9a0mtMF2wLkb/eRUMzyqsZ3QvJ3l39Pw3wb9Pr+2RcvDBqXPb/W1Eezei+x4O8vqQe3ddV9EV9I7rrctDndz0LUexn2mJ0K1j6sXro/O6Vf5u3osL3vLSi+OPBKFWP9Sg21E9BTHpv+vm8a8XFYHQhitsH8/isKyozSOtrlF6pqz/revtpeq6pl24Kexsrf9eMipuJAGv+G0fHeaezdDauH73VWa/SZlakPlOHXh18yGSvP9cz3/+bmBUvHzsXd4wYYOVVJTit5jpDnAVYOUrHe+EV49CM7oVbP0HL5XoXgPXoXqTtjOKkfaIR+R1nGlHcEItRTvJb0V2n6XEx8peGETajvBZi+NCkN5zlX1f9Xbow6oVZz0Z5tGK419mKixfRRYUuPemCst8wqF9FVV+l9z0NhW/FcFJgkLabVPFcj3wVEb7npRnlHuJY1PbSiu6xZpjPvWR/dNdd6uWW93DYPD7risgM9kcxE/30jtvpWJOedzpmV36o90w0cZ9bM9WzCIwsjwbZx0s469/WzcWEHqm31ih9plJ/rsd/9WYU4c5t5cuc8xhaOstN3JNZniG1IEWGV0k6YT0czLrF6AaZw57E97Sie2JbdC+1PC9mimpwuxj5nOSnC94iLizTxdYs3RDt3elP2+a0DZ+8nqK2kZ68rz0WopjPtfRZlscNmbx+zuV6gQSDqUcx1VetyO9zr6jjyqifT/XI3zhuAKTzhxQkt6LiZmQWwtpMT1O/JYfqljJWX+24P/+G6d0m6f01bb+Wp5vvtIOwdyJvqUl82cKePIY1brhpZiZEvaKak7M87Y9imzovRLkqEZicZuQrbVfpwqCoECuvavR6FHNh1BuOkpf9Kz8zT7073FTD/iiuCqsR+SoiNG5FvsF5K4oJBb8QDKoRxcg7pEwVdnnfECzjjQY3PXM0G1eN2WxXYOXh7bPLUSap+uqhxobIU69pe15hXQrCUjVWntJw0F0P3hJlkse2MetDCNs23f3N458MRrUYxU59vBhmIaNY6SS3qOEyeYUvjchfK4p53amaq4iLI6ojVZi1In/1yO8iuh7F7HdFVEw1I/9Q0D43uO9E/hYj/+0lhad5h55pv3PtX2GVD7DS7F4x4xtxHj2w3ipRBVaa5W/ftz+aeyXSrp+9ketMeKlv2K6fvR4nch5+mSrPFr+yKbZsLkfoM0u90Yo0F8uNYBSLUezsTItR3j4cVEuqGmpGMRoxuqIujIqqPMu770gjqJLeBAxFqEc+iqhA2h/FDTVKoWCe+3M9ZriX8RDmI/9r31YUdw6UbjLsj3yVrWqvEeSm8gHWmqU1jZhxG2+qRn+hXnDVmeUv54qdA78/U8gsi2l43Q9/PfqQxMulEOuZ73+sE2Sl9TJJp3OowJr1HlhJNudu0QgWQ3hFtRTVm2fUSoZ6FHNhVGRlYzPyDQTr0Z1hjurIu9l6z6cjHwuRvyI/01J4lffwXcMI+1fEMOfFKFbe++Aon1NF3ExZCHJT+QArq63VqyAHb58Z/xDCFLylYYKPf/3WaP7vWzrB1b23r4siZAXmJ1sKGh6XQp8UZKX1cmDPxzthVuOuD01lYLlx/cwPIYxYrimRH07qnyC8ompaUUwVVj1Gq2RoRP4Wo3jNyFcjqJJ0wdqM/OUR9tYj/9C4GcU3es47lHaTr39FnE/+axQrVWE1Iz+jbC9F9KtqtJefh0rCXJRvSrOc1bKYN8BpdOMaJpaqie5rh1T3furGwsKqK7nvU8VVMd03hteRekhtbYdZvcb2h145FwdfejcOvfpe7n24KEgt6mnI8+G9txU1jKaK0knaj6I4iyG8YnLStteI/KUbe8NejBRRBTHqbFb9SK93MfKTLo70w6uWdNHaiHzlcbHaiPztj+K1VpZ65EOA1Z8iZm18NoqdIbenGfk997QeUqXsn2JwRb3Whei+vsXw+TGSygdYpqcvt1Qt1Pjb9Z3gqlM9NKGhZKkpfPrdRQR1kxjil8K/XgCYhjEeeuW9aK4EWqfPiHRLa3ndKBeWsyadzO6M4iyG8IrJakb3RDrvO7Zp3xn2ONOIfKXQoBXFS78nz3VZD6rmD5G/eoyuiJEk4wiNk2bkN3RKgNWfRuTv2RiPvPfBRgwXFKXPilYUc5yvRzdAbkT3uTWDgVU6wLrvsT83yjV33vTKs2H4pKqsric9l+ZL70We7th+w8T7O6nOmh5zWSdwF2D1p8ghl4shvKIc0oXDQuSrHsNJF5B5h2nNGJ9W5HcR7GK6epqRv3qMroiec60YjzyHYm1aWVSpX9s0B555D92rx/DSZ2+RN0kXVpZmdPt/jSskrIRKB1jLsebTqQaLySpLldX1pEAt7wDrzm03RNmoziqvLJtzUTR5iyG8ojyK6sUxjHrkrxnjk9ZlXsdYfUyqp4zBSBEzqRdxTLmaNyNf9Rjv859GeW8vvWqkcWhFeSplU2hXZIDV01hZWtE9//xdjG99T61KB1hp+KC5zWIioURZq6yu5c7t+YdNZX/tZanOOv76UpDaYGUCrMlaDOEV5VLEne9hLw6KuLP/kRhfQ/Q8Q6dR+qtQTqci/yG79RhNEecErRjfPndL5CvtcwKsayuiYq8R02mUfbkZxQzhv5p6XOxN9+zKok/WVVQ6wKrVavORqSg5fXb0gZQfvk7V1LRUWV3LHQUEWHdum47wrudK1VkHnj/beWQsNs0/9ufG4Sc+0QzGbTGEV5RPK/I3bPhSj/z9PKA8xnnB2o965G9njKeypAgqH6+tN8wyTykQOxjTaZQwLx0L9sdk9pUvriyL0Q3S0rlpK3hfZQOs+Z0n6rG0XA9yaUy+5dYP9sBKgc8D7bBqmqqsrmXj+rnO6zzRDm7y+nl3bJ/eXexK1Vn/5fkzneqsEycvXPJ95GeuM/RZU8cxWwzhFeVURFVIkiqfyhBgTbN6qMCqmrINI/xksFo9uJZ6kKfUm2qSYW89LvbKenbl+TSD6gZYa5bOz2fhwjp5O4cKrI3r13SqrHph1Y77b57KKqvrSRVkz7VDmrx+VpWsrs5KwwtfePW9Ts+wDe2gblTHcwoNKyFbNoxwvJohvKLcigiwhhnaUw9Wq8f4mhszHmULsOoB/VOhdql6jKbVXvZGOSoWe1VZrejedJ3p4YWVDbCy2trPGD7YlUcF1tbNa6L5gy1RdalvV14BVuOuagVYq6Xqu7Q83NgQeXj7jPlC31erpQ+orwXj0ojuycBiQDm1Iv8L2XoMHr64OILxqger1YNrqQd5Szc403l5PcqhHt2hjYsxw0HW6KUTZdWdjp7QIHsQabjcgT0fj8+vDJsbVKpSSz/jufbP2DHkz5hFeYSsFbLp7m8eN2xgvHaHAAuuRXgFUG55N82nW5VZxpvK9egGWa9FMZM9lFolA6z5na8VMe3s1FLdMpjU02nPVza9H2Rt2Xz9oagpuHr0cxvjwOL/Ixbb/3aLvlADMYTwUnOx3AjGTYhFWbVi8gRYAOXmOF2MZnv5bpRTvb28GN0JUWbm/a/kEMK1S2vnRTYXpXAgVbhUsWdVkXpBVlp/aVhhamC+unl5koKrNIzuofZi/Q7vxElVgqtlc50A3vS547d75XExAACg2wsrVbgtRjktRLclxgMxAzMWVjLAWo65zwSXSFVYqRE7g0tB1iOf3dhZDrRDrCd/e7rTGF9wlR8VWJfKslojmBQhFgAAq6V+WG+2lx9FOdWjO6RwISp+E7ySAVYtao0s9NRJTbZ33L++sjMGTkLqa5UWFW35Sj3DDr1yrlPlllcT/WnW3rLm01Dow3tvK9uMSLMihVhp3e8NAJiMegBlks4Ln20vB6O8++f+9nJbVPhGbCUDrHZ4NfP9r9Ksgf/49Vv1YiqI8Cp/996+rrOceH2pE2bNvKW16TjWDCYl3WF7IwzlZPLqQRm5wUDRbGOXagX0r6j9p9Ve7o7uzc6dUU6VvhFbuSbu8984mi76ZrqJXQqv9n37o8IrptLj7eD1ju2VzNYHMmcodBmkD/6q3RDR5JVhuJD+IOuEotnGGITt5VJFro/0s1Nj91TptD/KKd2IbUQFVS7Ampub3Yu+NGQw9WR6+vsfE14xtTaun4tn2ttwms3x3ttv7DTKn0VZ6IN1Ha0oXgp7/iWqVQEjwJo+RYSorRiMCyMYP/vdpVrBtbwZrNaK4rXay9eivEFWJWcnrFyZQxZZo+qXu+mCfsuta+PObTd0KlXu3LauE14Z1kaV9PqNJUeOno+Xj7WXo0txpP145Ni5OH2m2n3uaoZCX8/+lcfFKFY9ur0OUrm4iwnGbVMUc/I5zIVOKwxnXK0VUCyfOZeyPq7N+pmcVnSDrNToPQ3f+2KUIziqt5fvRPd5VUblAqxarTYf2fRd2KZQasP6Ne0wam2nAmVDe+kFUls3r+18nWbDS/9vy+bZrq46fWa5M2tdCjROnOzOXpfWzwN3fai9bqq1SafXmmY+TAFOes3p/U99olJgmQLMjTdVrojyitLr7U5KcOnfp/WSGuqfPru88nihE2ylr1MvrfQ4xWHXpjQk+vA/bz8cXM24ZoSpR/cu1pdi+qnAmi5FBdmtGJyLo0updqBorWA1x6Bra0X+TsX0rvdJnD+34mKQ1YhumFWPyUp9un4cFdp/KnW1P7/zRD2WlusxJdLwqMZdN6qguobjJ5fihVfPdYKKFFZ1QqvXL1zxex//9VudWRd3PbipEuvy6YNvd17T5Zp/fPf9r9PrvGNbN9xJAecsBlv9SOFf2oYOvvRuHHr1vfeDz7JbGRItwLq21KcqfSj/PIqV7qYtxvTP6tKr6HEhMB2+EPkb9oKkFfkHavX28qcArqSIfWMhTE5SVa3IXyu6FegMphXdkQJpSefyCzG5qqz0OytVhVWpAGvN0vn5LMpfnZQuus0QeKkUVB05thQvd4Kqbmh1taDqWg48f7Ydci3FM9//m5hmT/7mrdj327ev+32pwuhQe12lZbVZD7Yul9ZBWhp3fahTrfVM8532Oj4dpZctG0bYn/0rj0WHWOlO2msx3pP/IoKmW0KANS0akb9hQ/FW5K8RLqbhaoq4gZXOK+xz+ShbRXPv5kSez6sejOp3K0uqzFpoL1+N8TdXXwgBVjlltbWfKfvwwRQkpBkCZ7XaqhdUdR47fY2W3h/qlZf0c1M48ejnNsY0Suumn/DqWgRbV5eGYT7y2e62Uf4QSyP3AexfeSw6xEoVX3+I8VXGtSL/qpf081S9lF89ihlCOOy2+4fIn4tpuLpW5M+NsfzUo3zS8b0R+dm08vOaQR72ryz16N4UXYjxqLeXT0ZFzv0qFWDVspgvc3y1dfOaTuXVLIRX4wiqruW5589MbYD15G+LC1UEWxelEOuFV96LQ6+ci9KqRf3ubx7/5Is/3Sps6M/+lcciQ6zezITjaupexO+oB9NgdxRj2ACrGflbiO5U5MAHpeN/K/I9ZjdidoeRz0J1Ut4BVpKGwDWDPLXi0qbvC1G8RlTkhlG1KrAia0SJ3fupGys3bDA1GU99qXpNxlMYMM6g6mrSc0nPYRrDwrQux62fYOu+22+MDe0/VynYerQdYj3yyskos7lYboQKhUHsj+5dpsUoTj26IdYDUbxW5K8R3YaelFc9ihtiMGwlVSvyvwB0dx+urRn5X9xWblayPhVx/CpbGFhEpezOqFgT8BJpxfiCrMpUPFcmwLrvsT83lqPcdtx/U1TFy0fPxaM/OTnxoOpa3m6HaxvXT19gWKZ1ujrYSn2jksZd6+Pxr38kqiBNpJBCujJvx9mcITZDSCcCt0W3z0BRGjGepu5FVN81grJbiGLu7rditOGvRdzdTyftzQCupIjh6rMaSBTxetNEG2U6R2tG/irXBLyEWnExyDoYxXz+16MiKjM+aDnWfDpKbmuFqq/u3L4uyiz1OdqyeTrXdwpVyizN9FglG9aX+zCYZfpgDSmdoBfdpypdeDeiWEWccPeqXiinehQXvjZjNM9G/hrR3V+BD/pd5C99BhQ1RLnMWpG/RpRLK4p5nekYXQ+K1opui4qiJnCohMoEWGUfPjguaUhf6uvz9MG3O0v6uigPNTZEWaXZ5qbV35c4IEp93IpYt2m7TTMvPvSf/r2zLP7ijTjw+zOdWSlnXa39gTO/87WyzXQzDVLw86Uo5kRutTSUsB7FKSqE+0JQVunCsh7FGDWA+tcoRnrNlTm5hhylz4AibmTsjNkLjluRvy9G+WYjLOJGQ6//p/PR4qX9XW/Ia6jMEMLaFNxNPv76UiFVQd1G1N1m1EeOnf/AcKhU+bXrwVs6X6dAIP15x9+NPpzx4Qdujmeab5dy+NU0D9cs87C2xt/mE66l5v67fvbG+w3jL9+O0nZ84Pmzna/T99x7+7rO0MV7P7Uu1/5bp88ux4nXL0TpLa1NF3bNYFCt6IZYqRy7qJOu1U3di9CK/Pt2JAvRLVXX06Jc0gXlQhRn1GqOVuTfVDrp7UcPRPGhM0yb/VFM2PSj9vJGzE6bglbkLx27UsVsmfpKphsNRWwv6Vw0nU+l47Rzh2I1oxte53ljpx4VUYkAa/4bR9ObW/pE+OBL7+U2PCyFVs2X3u3Mtne9oCM1NN/1s9ff/3NeAVYapveZdqiQnkOZpCqhFHhMs1Tdtq/A2QiHlULLPKRtN4VUaWn+8d1rfm/afo+3w6xeoNX42w91qsDy2Iabf3g3psFczJkBZnjpBCAFNT+K4syv/Pyi7pgV0XeoN4TEXb7yWIhit9P9kc9Fx/4opvdbvb28GN0+IEVUEMC0KiqQSPZHt2fkYlRfUTM693qKlUUzirnxlaTznXScdrOheHkHWJVRiSGEa+aW6zEFUpXJiZNLMazUOD0Ns2r8/090GqinptrDVOl0ZwvMZ2hhGYe7PfLZjTHt8gqK8pSq2vKaRfPplYbww0iB1+IvT3X2gzTUcNh9qjNssYQh4ZVkPsBGtXdlKVI6gW1EMYoaRjiLQ0jKKr0PP49i7Y98FDWMMOlVYqV1UY/J6TUtbgRMXjOKrXhJNzMmvc8ljSj2M6moz9J6lC8A3B/FqUc3xJr0+UMjujd9iipiacTkP4e4gkoEWFlt7WdiSjzSDp4GueDu9bR65Md/jYd/8NfY99t8huy98Mq5yEOqKCtTtVOqCktDzaZdeh1lqyJ79HP5BIMpiM1j2F7aD1JV1ucX/62zf6SeWX3/2/Z+tfjLN6Zj+GBbLRNg5SBVYRV18tqTLgCKOOEoMjBIJ3+LwaT0ApsiK6+SVuTXDDrtR80o1kJ0h6osxvguIDat/N70frwW3dBbrzjKouibMAvR3e7HGWT1JhTpDWVM+3yRswe3orggMIWAi5GfXog+7Poo8rwhSc8vvW9pmynyPbtcI7rrOf3etL0U2Vz+X1b9nq/G+MMs5/5XUY0AK8vqMSVS9VMKsa51sd0LrX74qzdjx+JfOtVWh17NJ3DqeWaECpjLPVqiiqc0tCz1j6qCMq3XslRfXU3aP1JV1o7df+lUZaX9J+1HV9IJhNv7VPOl4iY4yF3NzC856DV1L/Iudj26Jzx5K6qJb0868R73SeisSyf/i9Fd71+M4i1GvsYxnXo9Lm6b6aK6Efmqx8Vhm6ma4I2V37O6KXM9oBzSELUiPwd6FuLSi/Y8b8rUo7t//Wjl568OIca1zzWjOKN8ltbj0nWTjkd7Y/jPh2aMp/VEPbrVXkUcp+vRff0pyOutk/R4+UQnn478rW5P1IiLr/HgyvMpOlxajPz3hXEcP8aiEj2w5qK2KYvyNby+mhRipYvt1OPoM53AZa7bTPrkhXj52PmxVIWk35eGEebRk6tXhXXolXxDtmHkVSV0JSkQOfD8mThy9HznPUzNx/+hcXNs2VzMbpTW6x3b17Z/3/DDTvOS53otcju5vF/WHdtu6GybvX2sN9HBNEozER7ee1tlPnwmpBXd/jpFhEw9jeiejOd5tzy970X0wVqtHt0TtL0rvystrfby5mXf98lV359O7nonebNY6r4/Lq6n9B79KT7YE+RUXOxFktbVp1ceGzE+rci/SXNzZWnEeCysLL19odle/rDy59ZV/k1vu6y3l1vi4jbbiP63WXfAKYu0rafj82KMRyMu7t/N6O53v4tr73NJPS7uX59c+fP8qr+/nt6/K6pfVTOKvWlQjw9+lvY+H3rS6+uto+utm1GOQelGQyPGox6XHqeb0X3tveN0b+lZfQxO/3b1MXqQ7SVWvj/vz7irrfdGXFynrbj08yiPm42N6AagC5G/w1ERlZmFcBqli+1nCqhG6Vfq/7Mvp6byqVrokVdOxiSlwCevKqHLPX3w7U7guHr4Zqr6Se/fw+0QqzfLY97SrH9Hjk62T1Oe1Vep8nCcw/Z6jeKroHb+xrSRjfrBSLc5dDqx3BnF2b3ye1qRn/ScG1G83gV+I7ieekxHhc5iFGOcF0c9494+6yu/07GXMkhVWKurlcalEcX3p1othQdFBVh/iPHI61hVj+GPQc0Y742GnvR8vxjjqS5O6pG/fqq66nGxSqynF2KtDi4vD+9W6wW2vRtb9ShOKypCgDXDUjVK6seVRwVRCo8+3w46Jjkj4Y6CGsqn8OrxX7919f/faaa/HItf+UjkLTVzT83/8+h7Nqw8q68OlGzGymmS3fDem0Fe0oV3OuGoRzHSCUkqpX8g8tO78z3uCxem2/7I/850TzMmc3E0bvWo0J1rptq4q7AmpR7Facb0fZamcKMZw0lV52mIdJXPHUapUsv7Z/b+XSPKpxkVUZEm7lkrGMp/WRlqlYfvPfjhifWf2rp5TadSKG/H2wFfPz2b0pC1pw/mX02Xhr59voDX1a8UXuVVfZWat+fdy22WGD6Yq7QuvxbFakS+d6t7Fy7Qr7TN7IlifS2qX51URH8VGNY4JiSZtCICidWm7bN0lGNQK8bTs3CS6pF/QNeI6vldVEQlAqyImgu7IT3TqR7Kp7onhS2PfG4yjcfTULsipGGW/Q55u3yIYV4euOtDMQkpFHyosSHy8vQEh8tOu8zd/yI0o/i72Jc3Gh3VuJr4Ug0pQG1FsVpR/Yujoi+mYVBF34CZtKL3uWn7LB11faTArhnVVo/8NKJ6mlGhIYQVCbCWxzWeuXLS0Lc0RC4vD7cDj9Q0e9zSULu8peqr5waoUMt7Xfb0muSP2yOf3ZhbRd2g65IPaAVFSBfezShObyhhXlRh0a+0nRQ1dHCSv2sS6gHlkm5qfTeqqx7FmrbP0jwCvRR6tqK68qyUrWLV7f6okEoEWMtr1jSDoeVZhZV878sfjnHKs8n4aqn6alBpXaa+Ynlr/O14q7DSOs1zSOYw65KLalFrBkUpeghUI/K9m5dCt1bA1U3i4nZnVLdSVAUWZbQ3qntDo9fYukjTVIVVj9G12suXorpV3Hkep6t2zG9FxW4yVSLAOrx3SytqtVYwlLwrh+7Yvq5TvTMuRfS+euGV94aqGErr8ofXaPg+rB1/d9PY+ouloYN5Nm5XfTW65eXlyoxbL6FWFD8EKlVh5dmfoerDRxheK7oXKeN2auX3tqJ66mHyBMopBdXNqKaiQ4Rx9AjMS16BXpUr9+qRn6oFWF+MiqnIEMK2LNsfDC3vKqwUgIxj2FsKW4r4PYu/GP4GRfOld+NQOwDLU+ovlmc/qmtJ4WOeFW2qr0aTZdE6/M/b9cAqVtH9Iert5TuRn2ZUe/gIw2lFd+bLVkxGa8K/v0j1gHJKwXEVzxHqUbxp6g3ViHzsj2reBMsrdNoU1Qqw0jZeuVZLlQmwltfOVbn/QuGK6N+0+JWPFF41VESl14Hfn+m7cfvVFBHaNMbQzD0Fj3lWtKm+Gl0W2WIwDkUPJVyMfE/Iq953iMGkC9gyhEetqGaIZSZCyip9bqV9rmqfB+MKEaalN1Se62N/e7k7qjWcsB75VMpWKbyqbMVdZQKsNIww0ydmJHlXYW29dU07xCq26v6+22+MvOURPh165VzuVVh3br+h0Kq2VM2WdyCo+mo0qfoqLpw3fHA8WjGeoYR5WgghFt2LkTKFRq3oXhw9G9WhDxZlloKIhSh+Zt1xGtc+14rpCN3rka8UbqTjdCuqox6jq8rNilZMpp3AWFRnCGFbtrxsSMUIUhXWvt/k27+pcdf6XPsprVZE8/ZUhTZq9VXPKMMQr+bRgnqLpfBq37c/Gnl6+eg51Vcjymq1vYf/822tYFxSVVORQzEakf/0zAthZsJZlT5kdkbx1YPD6PXEWoxqqAeUX7oJU5XZ5uoxPq0of4hVRKDXiu7r3h/VkEf41Ijp14rqDufvqFSA1ekT077gC4b2dPOd3CuHUlVP4678K6XyDsbScLf0+nP7ee0g7OmD+f285N7bbyxkWObjX7819zBw18/eCIbX6X31xNYfB+NW9I2QvKuwkvScF4NZ0ozu3fOyHyPSBfVtMf0n0iqwmBb7oxqhxDhmIlytFeW+6K9HMZNJtKIbelYh+MzjOF2P6bY/qldZ9wGVCrCS5TXv7cnMSDiSIoZ9pX5Yd2xfG3lJQU7egUt63XlVX/Xsa//MPIdlJnk3c//eg7fEHdtuiDzl0Uds1mUXzj0QTEIziq1oqreX3ZG/qgQFXFuv6mqa7q62orttfjemd/ush5kImR6tqEYocVuMV2vldy5GOdWjOPtj+oPPeoxmmhu494YRl7EiO3eVC7AO773tVHZhOZWtV/7NK0rq35R35VCaRe/xr2+OLZvzCZ123L8+8lRUs/EimuM//MDNkZdUxfZQI7+fl6R1qffVaJajttPQwYlKYVAripMCiKLupKaT72m+aElDOFOA+MX28qfIz1NR/BDRIqVzmsXovr/TWpmZ1n+6QFqM6do+m9G9MHBeybTZH9P5mdA73k3qeN27IdSM8mhG8cegVnS3lfTa98f0SOslfb4sxugWYzr3lfSezUxP1MoFWEkaSrhcy/TDGkGqHDrRDiLylJq6pz5Lo4ZYqV9TnjPlJUUGLqk5fp7rMoWBeTRzT+FVEbM4FlHJNkvax669hg5OXDohKPIzJIVX34ni7I+LFy1lDmzSem7GxcDqI9EtfU/r/l8jX62Vn5t+/m0rv28aplBvRjc8Sc85XVRNe4jSiu7rSEFWmS+q036zGN1+KFWc4Y3Zsj8ufiY0o5xa0T0mN6L7WTDp410ruvt+IyY3IUUzuje8PhLjrbptxcUga2+U8zidto390f0s71X4/iFGk35mL7xsrPz8VpTT6uCqCucGA6lFhd3zreM/iizbGQylcdeHOr2R8pZ6Qz3yk7+2Q53hQo4UXuU5u2GqGNqx+G9RpFQxloZR5iX1KXvkJydjWA8/sCF2ffnDkbc0dHDxl25SDytrXzS9+MS2u6N66pF/76d0Qbk/ipWG+tWjGEWHZKvV28sXonui14jJaEU3FOg9NiPfCqtRfSa6J4KpCez8ypLfB03/0naR1k+6YHoqZuOkNK3rr0Z325zU8I1WdNd5WvcpPB3Hem9Ed7vLU7r5UcZtJu/jfzOKCRXTjYW8t8GvRfnUo7v99fa7SWhF933sHe/K9HlwJfXorqsvrDwWVUXdXFnGdRzqVzpWLUT3tddj/Fpx8dwhPf4uxicdE9Lr/2JM7twg6YV2aX8Z5+svnUoHWMndjx0/WIusEQxl15dvyXXIWs8oIdZzez6ea/+rR3781zj06rko2r5vb+707srLQz/4tzhydPDKrh1/1w4A/yH/Y28KAlOopvpqOKlpe+p7ZeggBUs7fwppGtE9EavH6Bdsp1aW1sqy+ut0oln2C5Or6a2rXl+M1Y/1yOckthWXnpSnO8izfBegHheDnV6QmKdWXBqk/iEubrMwi9JxLO1vjSgmvG/FxWC+t1ThONc7RtVXPdb7/LetuHSdtGK6PivrUdxxuhUfXDe/i3JtL73XXOQNr955VG89PBvTey6Vu8oHWPM7X9tUu3Dji7UsqwcDS8PVnvl+GvaXXwP2nmFCrMZd6+Pxr+dXyTTOiqE07C8NoczLk7853RnqOYiihg0mu3/xRiF9xGbF8nJ2d2cmVZiMNNtTfeXrTfHBk7FeSJW82V5604zO+glVWm/pQ+mWuHS9Xb4OV6+/1sriZLQ/6eKgt332wsOISy8WW5f9m/Tny4NV6xv6k/a5W+LSwD7i0uPa6mNa0lr12Asg3ozZC4fT+rnlKv+vyseg3jZTj4vH6quFOqcuW1oryzRvL6tveNXj4uvvrYP6qu+90r7j82oAlQ+wkvlvHJ2fm6sdDDPIDCXv4GW1QUOsNKQxDW3My+d3/2WsFUN5VmGlBvE72s+/31kOiwyvUqP6x3/9VjCcTtN2fa8AAACuqpJN3C+nqfto0qyEj//qzShCr7H7HduvX+GVmrfnGV6l6qtxD3db/EV+NxZSddzn+2xm/70HbyksvEpDB4VXw9O0HQAA4PryayRUcv/9v/7j4Y//j7tSyVkjGNgfW+fjzu03RP3j+Q8lTEHM//wfbo63zy53fs/V7GqHMOk55CGFLmno4Nt9Vi/lJVVLpdf7t7eNPotgcuMNtThwjWF7G2+qxRP/v4/G//fe9VGEXt+rca/HqkhN2w8/sf1LAQAAwDXNRAVWz+Entu3JotYMhpKqh06cHLxpeL9SQLXrwavPjHdfjg3QDzx/ZmLNxlPfqtM5BT5pOGIa4nkld7TDvme+/7Gr/v88PP7rNzVtH1KnafvSOeEVAABAH2YqwEqyte99KavVWsHAUs+lVG1zusBqm4cbG+JAmmVw86XFgTvuvym3mQdT1dC+374dk5LWY+oZlZfG335wWOXDD2zoDM3Mc7bGyz35m7ei+dJ7wXDMOAgAANC/mQuwDu+97VS2pvZAmDJ5KKnp+q6fnYwipb5Yz3z/by7p77Sjz15P/XhywJn7ivBM853cgsAdf3dTbFzfnY8hDRlMje53ffnD7/9dEVIAN8kQcNp1mrYLrwAAAPo2Mz2wVvvvv3/81Mfv/49/qUXti8HA0pCx1K/qf/p/5ddQ/XKpt9MDd32o07g9TZa58P/ZEHlI1Vd7fllMQ/pBnFvK4uRbF6Jx1+i9qdK6ei+1DqvV4olvbI6/rRc3ZDA5cvRc7Po/3giGsxyxePiJbT8IAAAA+lZcicYUmH/s2O659sVkMJRHPrshHv3ch2Oa7Np3Mpp/LM+wt33f3tzpYzWqbnP44nfnFAA+/IN/L3QYaZWlpu0vPrHt7gAAAGAgMzeEcLWVpu7PBkNJQ8hSH6RpceD3Z0oVXiV5DWccV3hVdA+0KtO0HQAAYHgzHWAl2dr3vqap+/BSiPX0wXdiGpSh99XlDr1yrr2UvxF6L7wy4+DwNG0HAAAY3swHWJq6j+7xX78Zzz1/JsosVV+VNXwpY7C2mvBqdJq2AwAAjGbmA6zk8N4treW48LVgaLt/carUwwnLHBKlKqwUsJWR8Gp03abtW38cAAAADG0mZyG8kv/+X3/0f338f9yVuto3gqEcevVcpDbV9+XQlDxPKVj7Xcl6X10urbsH/8PNnRkFy0J4NbrUtP3wE9seCgAAAEaiAmsVTd1HV7bG7imEeaZZ/h5dp88ux9MH346yOHL0XGe2QeHV8DRtBwAAyI8A6zKauo8uhViP/+rNKIVaLT5//81xx/Yboqw23lSLe2+/Me4syXM88Pt3zDY4ovaaO6VpOwAAQH7KM16pROZ3nqjPLS2/2P5yUzC0FBr94//ykdiyeW2UwfHXL3Rm/Gu+9G68fOx8nDg5ueqitG7u/dSN8cBdH+p8vXF9OXbFVD2XAkhG02naru8VAABAbgRYVzH/2J8bczF3MBjJ1lvXxL5vby5NiLXakaPnO6HWC6+ciyPtQOvIsXNx+kz+VUfptd/3qXXtoGpt3LltXakCq57TZ5bjh53ZJM8Go+k2bd+2JwAAAMiNAOsa5h87tnuufTEajGTj+rl45LMb4+EHbo6yS8PmUrCVelIdf32pE2ilPlDpz1cbUpfCqPQaky3twG5rO7BKf3fnthva4VX550lIfcJ2/eyNTojHaLLImi8+sf2BAAAAIFcCrOu4+7Fj+9sr6avByB5u3By7HrwlKI/mH96NxV++od9VDjpN2/W9AgAAKIQA6zrmd762qXbhxhdrWVYPRlbmIYWzJA0ZfPK3b8UzzTPB6DpN25fO3S28AgAAKIYAqw+auufvkc9uiEc/9+Fg/F545b1Y/MWpztBI8qFpOwAAQLEEWH3S1D1/qrHGS9VVMTRtBwAAKJ4AawDz3zy6c65W+1GQK9VYxVN1VYwsas+++MTWLwUAAACFEmANSFP3YqRqrAN7Ph7k78Dvz8TiL08F+dK0HQAAYHzmgoFka8/tzCIOB7m69/Ybg2I0Pv2h2LheVp2nTtN24RUAAMDYCLAGdHjvbaeytXNpyJCSlhw9+rmNQTE2rp+Lz9y1PshPlmU7hVcAAADjI8AawuG9W1rLsazvTZ6yoFBWcF46Tdt/uv2pAAAAYGwEWEM6/MQnmstZ9t0gFwdfejcoxumzy/Hc82eD0aWm7WYcBAAAGD8B1ggO/3T73qjV9gYjSyELxXj56PlgdJ2m7UvvCa0BAAAmQIA1ouU17+3R1H1y0gx7s+L0meU4cXIpBrX11rXBaDRtBwAAmCwB1oh6Td2zWq0VDO3v/+6mGFQKrxZ/eSp27P5LLP7ijXjhlfeiitLr+uGv3owdi3+J3b8cfO6ArZvXxL23rwuGp2k7AADAZNWCXMw/9ufGXMwdDAa24/6bYvErmwb6N6ka6aEf/HuceP3CJX+/9dZuWNO4a33c+6l1sfGm6cto02s7+Md3478deS+a7cfTZy9twL7v25vbr/HGGMShdgj2yE9OBoPrNG3X9woAAGCiBFg5mv/m0Z1ztdqPgoE8t+fjsaUdPPUjhTtPN99uBzLn4tCr5677/SnEatz1obhj+w1x34Chz7ik1/TysfOdkKmf19UL6R797MbYsrn/4YGfX/xLnDh5Iehfatr+4hNbzTgKAAAwYQKsnN3zreM/iizbGfRlkOqr4yeXOlVEl1ddDSIFWr0wK4Vmd7a/HqcUVh1vP/8UWB05er4TWB05NnyT9T3tdff5+/sbfnng+TOx+IvBhyDOqk7T9hvO3Z2GCQcAAAATJcDK2fzO1zbVltYdbK/Y+eC6Bqm++vzuv4wUXl3NHdtu6FQ1bdm8pvO4dfPa2LC+9v7Xg0gBVZpRMQ37SyHV2yuBVap8Sn8u4vk/t/ixviuxHvnJXzuhGdfWadq+1A6v9L0CAAAoBQFWAeZ3nqjXLmQHa1lWD65qkOqrXsP2SdnYDrQ2rL96P623V0KrSdhx//r2evxIX9+rF1Z/luPClw4/8T88GwAAAJSCWQgLcHjvllZ2YVnfnGtIM+M9+rmNfX//k789HZOUwqlUPXW1ZVLhVXLg+bNx4uRSX9+bmr+bkfDauk3bhVcAAABlIsAqyOF/3n54Ocu+G1zRI6kBeZ9DB1P1VRFD76rkl80zfX9vqtZKFWV8UGrabsZBAACA8hFgFejwT7fvjVptb3CJVH21o8/G40lqPs61PddeR/1WgaXeXo8MUP02KzpN29e+97UAAACgdARYBftv/7T1u+1Y4XDwvn3f/mjf35tmHjz0qqbj15Maxz998O2+v//hxgZDCVfpNG2/cO4BMw4CAACUkwBrDLK1c1/KarVW0Ol71e/QwaT50rtBfwZdV4YSXpTFha+ZcRAAAKC8BFhjsKqp+0xXdzTu+lCn99UgDB/s35Fj5zuzDPbLUMIuTdsBAADKT4A1JitN3We2OXTqe/W9B28Z6N+k4YNHjvU3ux5dB1/qP8BK0lDCxl03xszKYr+m7QAAAOUnwBqjWW7qPsisgz1PN98JBvPcEBVrszqUMDVtX77hnJlCAQAApoAAa8y6Td1rzZghacbBQWYd7NH/anCpmfsgwwiTjevnYteA1XHTrjPjoKbtAAAAU0OANQHZ2trXZqmp+6ND9Fl6oR3CnHj9QjC4QYcRJilgnKVZCbPahe9q2g4AADA9BFgTMEtN3VMwMujQweTQK+eC4Rw5Nty6e/Szs9HQXdN2AACA6SPAmpBOU/daVvn+O48OOctd86WzwXBS+Hf6bBaDuvf2G6tfhaVpOwAAwFQSYE3Q4X/avr/KTd0bd60fqvrK7IOjO/D7wZu5J58folfZtNC0HQAAYHoJsCasyk3d7/3UcNU8hg+OrvnH4SrY7vvUjVFFmrYDAABMNwFWCWRr3/tSFZu6b7ypFsM48Pxw1UNcNOwwwq2bB6+YmwpzcwuatgMAAEwvAVYJpKqQWWnqfj1p+OChV1Vg5eHpg2/HoI6frN7Mj6lp+4v/tOV3AQAAwNQSYJVEFZu6v3x08D5WT/72dJCPZ5rvDFyFdeiV96JK2vvUXk3bAQAApp8Aq0Sq1tT9uefPDBSgpOqr5543+2BeTp9dHrgKq0rDN1Pfq1hzXngFAABQAQKskqlSU/cUoOz7zVt9f7/qq/ylKqwTJ/urhEthV1WGb2raDgAAUC0CrBKqUlP3p9sBypN9hFjpe1Rf5S+FiI/85OR1Q6wDv38nHv91/2Fj6WnaDgAAUCnDTRNH4eZ3nqjPLS2/2P5yU1TAjvvXx0ONDXHn9hsu+fsXXnkv9v3mtMbtBdu4fq69/m+Kv7//ptiyee37f5/Wfxo2WKXwMDVt1/cKAACgWgRYJTb/raMLc1nt51EhW29dE1vaS3Lk2PmBm4wzuo3ra7GhHWi9fXa5cuu/07T9n7ZXajIEAAAABFilN//Ysd1zEYsBXFOn79UN5+7W9woAAKB6BFhT4O7Hjh+sRdYI4Ireb9qu7xUAAEAlaeI+BarU1B2KkGXZl4RXAAAA1SXAmgJpSFS2pvZA+0tDo+Aynabt/7z9cAAAAFBZAqwpcXjvltZyXPhaAO/rNG034yAAAEDl6YE1ZTR1h67U9+rFn267LQAAAKg8FVhTJlWbZFF7NmCG9Zq2BwAAADNBgDWFsrXvfU1Td2aZpu0AAACzRYA1hTR1Z5Zp2g4AADB7BFhTSlN3ZpGm7QAAALNJE/cpp6k7syJr57YvPrHt7gAAAGDmqMCact2m7vFUQIV1mrYvnftSAAAAMJMEWBWQrT23U1N3qkzTdgAAgNkmwKoATd2psuWo7dS0HQAAYLYJsCqi29R92RArKqXbtH3rjwMAAICZpol7xWjqTlVo2g4AAECPCqyK0dSdKtC0HQAAgNUEWBXUaerezrICppSm7QAAAKwmwKqgTlP3tXOpekVTd6aOpu0AAABcToBVUZq6M42WIxY1bQcAAOBymrhX3Pw3j+6cq9V+FFBymrYDAABwNSqwKu7wT7fv1dSdstO0HQAAgGsRYM0ATd0pu+zCuQc0bQcAAOBqBFgzoNfUPavVWgEl02naLrwCAADgGgRYMyI1dc+yC18LKBFN2wEAAOiHJu4zRlN3ykLTdgAAAPqlAmvGpKbuUavtDZggTdsBAAAYhABrBi2veW+Ppu5MkqbtAAAADEKANYM0dWeSNG0HAABgUHpgzbD5bxydn5urvRgwJt2m7dv2BAAAAAxABdYMO/zP2w8vZ9l3A8Ygi6wpvAIAAGAYAqwZp6k749Bt2n7+awEAAABDMISQjrsfO7a/vTF8NSBnnfBK03YAAABGIMDifUIs8ia8AgAAIA+GEPK+F5/YtpCabAfkIIs4LLwCAAAgDwIsLpGabC/Xsq9ltVorYEjtbWhvtlZ4BQAAQD4MIeSK5neeqM9dWN4dWSwE9CnNNBi1NYsv/tOW3wUAAADkRIDFNfWCrCxqjVqW1QOuQHAFAABAkQRY9O3ub534TC0ufDHLYr696cy3N55NwczJIk61jxynastZc3nNmmbMvfuvh/fedioAAACgIAIshja/87VNtfM33hLMlBd/uvVPAQAAAAAAAAAAAAAAAAAAAAAAAAAAAAAAAAAAAAAAAAAAAAAAAAAAAAAAAAAAAAAAAAAAAAAAAAAAAAAAAAAAAAAAAAAAAAAAAAAAAAAAAAAAAAAAAAAAAAAAAAAAAAAAAAAAAAAAAAAAAAAAAAAAAAAAAAAAAAAAAAAAAAAAAAAAAAAAAAAAAAAAAAAAAAAAAAAAAAAAAAAAAAAAAAAAAAAAAAAAAAAAAAAAAAAAAAAAAAAAAAAAAAAAAAAAAAAAAAAAAAAAAAAAAAAAAAAAAAAAAAAAAAAAAAAAAAAAAAAAAAAAAAAAAAAAAAAAAAAAAAAAAAAAAAAAAAAAAAAAAAAAAAAAAAAAAAAAAAAAAAAAAAAAAAAAAAAAAAAAAAAAAAAAAAAAAAAAAAAAAAAAAAAAAAAAAAAAAAAAAAAAAAAAAAAAAAAAAAAAAAAAAAAAAAAAAAAAAAAAAAAAAAAAAAAAAAAAAAAAAAAAAAAAAAAAAAAAAAAAAAAAAAAAAAAAAAAAAAAAAAAAAAAAAAAAAAAAAAAAAAAAAAAAAAAAAAAAAAAAAAAAAAAAAAAAAAAAAAAAAAAAAAAAAAAAAAAAAAAAAAAAAAAAAAAAAAAAAAAAAAAAAAAAAAAAAAAAADBR/zfbzhWhYoGC0wAAAABJRU5ErkJggg==;" parent="1" vertex="1"><mxGeometry x="-150" y="18.65" width="368.96" height="157.52" as="geometry"/></mxCell><mxCell id="jCoO6dXICAr47p2ZTsIo-15" value="&lt;div style=&quot;font-size: 16px&quot;&gt;- Kubernetes events&lt;/div&gt;&lt;div style=&quot;font-size: 16px&quot;&gt;- Object changes&lt;/div&gt;" style="text;html=1;align=left;verticalAlign=middle;resizable=0;points=[];autosize=1;" parent="1" vertex="1"><mxGeometry x="10" y="535" width="160" height="30" as="geometry"/></mxCell><mxCell id="jCoO6dXICAr47p2ZTsIo-21" value="&lt;div style=&quot;font-size: 16px&quot;&gt;From&lt;/div&gt;&lt;div style=&quot;font-size: 16px&quot;&gt;- kube-state-metrics&lt;/div&gt;&lt;div style=&quot;font-size: 16px&quot;&gt;- Kubelet&lt;/div&gt;" style="text;html=1;align=left;verticalAlign=middle;resizable=0;points=[];autosize=1;" parent="1" vertex="1"><mxGeometry x="247" y="540" width="160" height="50" as="geometry"/></mxCell><mxCell id="xBDIy38juaYT07p71_3k-19" value="" style="rounded=0;whiteSpace=wrap;html=1;fillColor=none;strokeColor=none;" parent="1" vertex="1"><mxGeometry x="467" y="450" width="40" height="20" as="geometry"/></mxCell><mxCell id="xBDIy38juaYT07p71_3k-25" value="" style="rounded=0;whiteSpace=wrap;html=1;fillColor=none;strokeColor=none;" parent="1" vertex="1"><mxGeometry x="180.00000000000003" y="154.57" width="40" height="20" as="geometry"/></mxCell><mxCell id="xBDIy38juaYT07p71_3k-27" style="edgeStyle=orthogonalEdgeStyle;rounded=0;orthogonalLoop=1;jettySize=auto;html=1;entryX=0;entryY=0.5;entryDx=0;entryDy=0;endArrow=open;endFill=0;exitX=1;exitY=0.5;exitDx=0;exitDy=0;startArrow=none;startFill=0;" parent="1" source="xBDIy38juaYT07p71_3k-26" target="jCoO6dXICAr47p2ZTsIo-1" edge="1"><mxGeometry relative="1" as="geometry"/></mxCell><mxCell id="xBDIy38juaYT07p71_3k-26" value="" style="rounded=0;whiteSpace=wrap;html=1;fillColor=none;strokeColor=none;" parent="1" vertex="1"><mxGeometry x="180.00000000000003" y="41.51999999999998" width="40" height="20" as="geometry"/></mxCell><mxCell id="f4lruv_xXQ9ZHsqGlqqq-1" value="" style="group;fontStyle=2" parent="1" vertex="1" connectable="0"><mxGeometry x="739.9961290322581" y="19.99610310841547" width="165.1612903225806" height="83.04776345716454" as="geometry"/></mxCell><mxCell id="jCoO6dXICAr47p2ZTsIo-6" value="" style="group" parent="f4lruv_xXQ9ZHsqGlqqq-1" vertex="1" connectable="0"><mxGeometry width="155.16129032258064" height="73.0477634571645" as="geometry"/></mxCell><mxCell id="jCoO6dXICAr47p2ZTsIo-1" value="" style="rounded=0;whiteSpace=wrap;html=1;strokeWidth=1;strokeColor=#008AFF;fontStyle=2;fillColor=#CCE8FF;fillOpacity=40;" parent="jCoO6dXICAr47p2ZTsIo-6" vertex="1"><mxGeometry width="145.16129032258064" height="63.04776345716452" as="geometry"/></mxCell><mxCell id="jCoO6dXICAr47p2ZTsIo-5" value="" style="rounded=0;whiteSpace=wrap;html=1;strokeWidth=1;fontStyle=2;fillOpacity=100;strokeColor=none;strokeOpacity=0;" parent="jCoO6dXICAr47p2ZTsIo-6" vertex="1"><mxGeometry x="10" y="10" width="145.16129032258064" height="63.04776345716452" as="geometry"/></mxCell><mxCell id="jCoO6dXICAr47p2ZTsIo-8" value="" style="group" parent="f4lruv_xXQ9ZHsqGlqqq-1" vertex="1" connectable="0"><mxGeometry x="10" y="10" width="155.16129032258064" height="73.04776345716454" as="geometry"/></mxCell><mxCell id="jCoO6dXICAr47p2ZTsIo-9" value="" style="rounded=0;whiteSpace=wrap;html=1;strokeWidth=1;strokeColor=#008AFF;fontStyle=2;fillColor=#CCE8FF;fillOpacity=40;" parent="jCoO6dXICAr47p2ZTsIo-8" vertex="1"><mxGeometry width="145.16129032258064" height="63.04776345716452" as="geometry"/></mxCell><mxCell id="jCoO6dXICAr47p2ZTsIo-10" value="" style="rounded=0;whiteSpace=wrap;html=1;strokeWidth=1;fontStyle=2;fillOpacity=100;strokeColor=none;strokeOpacity=0;" parent="jCoO6dXICAr47p2ZTsIo-8" vertex="1"><mxGeometry x="10" y="10" width="145.16129032258064" height="63.04776345716452" as="geometry"/></mxCell><mxCell id="jCoO6dXICAr47p2ZTsIo-3" value="&lt;font style=&quot;font-size: 16px ; font-style: normal&quot;&gt;StackState &lt;br&gt;Agent(s)&lt;/font&gt;" style="rounded=0;whiteSpace=wrap;html=1;strokeWidth=1;strokeColor=#008AFF;fontStyle=2;fillColor=#CCE8FF;fillOpacity=40;" parent="jCoO6dXICAr47p2ZTsIo-8" vertex="1"><mxGeometry x="10" y="10.000000000000007" width="145.16129032258064" height="63.04776345716452" as="geometry"/></mxCell><mxCell id="xBDIy38juaYT07p71_3k-11" style="edgeStyle=orthogonalEdgeStyle;rounded=0;orthogonalLoop=1;jettySize=auto;html=1;endArrow=open;endFill=0;exitX=0.5;exitY=1;exitDx=0;exitDy=0;" parent="1" source="jCoO6dXICAr47p2ZTsIo-3" edge="1"><mxGeometry relative="1" as="geometry"><mxPoint x="833" y="380" as="targetPoint"/></mxGeometry></mxCell><mxCell id="xBDIy38juaYT07p71_3k-30" value="&lt;font style=&quot;font-size: 12px&quot;&gt;Push&lt;br&gt;data&lt;/font&gt;" style="edgeLabel;html=1;align=center;verticalAlign=middle;resizable=0;points=[];" parent="xBDIy38juaYT07p71_3k-11" vertex="1" connectable="0"><mxGeometry x="0.0866" y="3" relative="1" as="geometry"><mxPoint x="-3" y="33" as="offset"/></mxGeometry></mxCell><mxCell id="2yzsOEMiPKhiCfh9Lknw-4" style="edgeStyle=orthogonalEdgeStyle;rounded=0;orthogonalLoop=1;jettySize=auto;html=1;entryX=1;entryY=0.5;entryDx=0;entryDy=0;endArrow=none;endFill=0;dashed=1;startArrow=open;startFill=0;strokeColor=#999999;" parent="1" source="2yzsOEMiPKhiCfh9Lknw-1" target="2yzsOEMiPKhiCfh9Lknw-3" edge="1"><mxGeometry relative="1" as="geometry"/></mxCell><mxCell id="2yzsOEMiPKhiCfh9Lknw-1" value="&lt;font style=&quot;font-size: 16px&quot;&gt;StackState &lt;br&gt;ClusterCheck&lt;br&gt;Agent&lt;/font&gt;" style="rounded=0;whiteSpace=wrap;html=1;strokeWidth=1;strokeColor=#008AFF;fontStyle=2;fillColor=#CCE8FF;fillOpacity=40;dashed=1;opacity=60;" parent="1" vertex="1"><mxGeometry x="519.9961290322581" y="76.56610310841548" width="145.16129032258064" height="63.04776345716452" as="geometry"/></mxCell><mxCell id="2yzsOEMiPKhiCfh9Lknw-3" value="" style="rounded=0;whiteSpace=wrap;html=1;fillColor=none;strokeColor=none;" parent="1" vertex="1"><mxGeometry x="180.00000000000003" y="98.07999999999998" width="40" height="20" as="geometry"/></mxCell><mxCell id="2yzsOEMiPKhiCfh9Lknw-7" style="edgeStyle=orthogonalEdgeStyle;rounded=0;orthogonalLoop=1;jettySize=auto;html=1;endArrow=open;endFill=0;exitX=0.5;exitY=1;exitDx=0;exitDy=0;entryX=0.404;entryY=-0.006;entryDx=0;entryDy=0;entryPerimeter=0;" parent="1" source="NumrLUZ_5ZjBdyxwcPVm-86" target="NumrLUZ_5ZjBdyxwcPVm-93" edge="1"><mxGeometry relative="1" as="geometry"><mxPoint x="783" y="390" as="targetPoint"/><mxPoint x="782.5767741935483" y="113.04386656558017" as="sourcePoint"/></mxGeometry></mxCell><mxCell id="2yzsOEMiPKhiCfh9Lknw-8" value="&lt;font style=&quot;font-size: 12px&quot;&gt;Push&lt;br&gt;data&lt;/font&gt;" style="edgeLabel;html=1;align=center;verticalAlign=middle;resizable=0;points=[];" parent="2yzsOEMiPKhiCfh9Lknw-7" vertex="1" connectable="0"><mxGeometry x="0.0866" y="3" relative="1" as="geometry"><mxPoint x="-3" y="33" as="offset"/></mxGeometry></mxCell><mxCell id="2yzsOEMiPKhiCfh9Lknw-9" style="edgeStyle=orthogonalEdgeStyle;rounded=0;orthogonalLoop=1;jettySize=auto;html=1;endArrow=open;endFill=0;exitX=0.5;exitY=1;exitDx=0;exitDy=0;entryX=0.612;entryY=-0.006;entryDx=0;entryDy=0;entryPerimeter=0;dashed=1;strokeColor=#999999;" parent="1" source="2yzsOEMiPKhiCfh9Lknw-1" edge="1"><mxGeometry relative="1" as="geometry"><mxPoint x="593.6399999999999" y="378.25999999999976" as="targetPoint"/><mxPoint x="822.5767741935483" y="113.04386656558017" as="sourcePoint"/></mxGeometry></mxCell><mxCell id="2yzsOEMiPKhiCfh9Lknw-10" value="&lt;font style=&quot;font-size: 12px&quot;&gt;Push&lt;br&gt;data&lt;/font&gt;" style="edgeLabel;html=1;align=center;verticalAlign=middle;resizable=0;points=[];" parent="2yzsOEMiPKhiCfh9Lknw-9" vertex="1" connectable="0"><mxGeometry x="0.0866" y="3" relative="1" as="geometry"><mxPoint x="-3" y="33" as="offset"/></mxGeometry></mxCell></root></mxGraphModel></diagram></mxfile>